<svg xmlns="http://www.w3.org/2000/svg" version="1.1" xmlns:xlink="http://www.w3.org/1999/xlink" xmlns:svgjs="http://svgjs.dev/svgjs" width="1500" height="1500" viewBox="0 0 1500 1500"><g transform="matrix(1,0,0,1,-0.7499999999998863,-0.7494140625001364)"><svg viewBox="0 0 280 280" data-background-color="#000000" preserveAspectRatio="xMidYMid meet" height="1500" width="1500" xmlns="http://www.w3.org/2000/svg" xmlns:xlink="http://www.w3.org/1999/xlink"><g id="tight-bounds" transform="matrix(1,0,0,1,0.13999999999998636,0.13989062500002092)"><svg viewBox="0 0 279.72 279.72" height="279.72" width="279.72"><g><svg viewBox="0 0 279.72 279.72" height="279.72" width="279.72"><g><svg viewBox="0 0 279.72 279.72" height="279.72" width="279.72"><g id="textblocktransform"><svg viewBox="0 0 279.72 279.72" height="279.72" width="279.72" id="textblock"><g><svg viewBox="0 0 279.72 279.72" height="279.72" width="279.72"><g transform="matrix(1,0,0,1,84.64309211731428,84.64309211731428)"><svg viewBox="0 0 110.43381576537146 110.43381576537146" height="110.43381576537146" width="110.43381576537146"><g id="icon-0"><circle r="55" cx="55.21690788268573" cy="55.21690788268573" fill="#dedede" data-fill-palette-color="accent"></circle><svg xmlns="http://www.w3.org/2000/svg" viewBox="4.994201675658329 4.711756412890047 40.011596648683344 40.57338842443977" x="16.56507236480572" y="16.56507236480572" height="77.30367103576003" width="77.30367103576003" class="icon-xg-0" data-fill-palette-color="quaternary" id="xg-0"><g fill="#000000" data-fill-palette-color="quaternary"><path d="M34.71 14.29l-1.42 1.42L42.59 25l-9.3 9.29 1.42 1.42 10-10a1 1 0 0 0 0-1.42Z" fill="#000000" data-fill-palette-color="quaternary"></path><path d="M15.29 14.29l-10 10a1 1 0 0 0 0 1.42l10 10 1.42-1.42L7.41 25l9.3-9.29Z" fill="#000000" data-fill-palette-color="quaternary"></path><rect x="4.12" y="24" width="41.76" height="2" transform="translate(-6.13 41.76) rotate(-73.3)" fill="#000000" data-fill-palette-color="quaternary"></rect></g></svg></g></svg></g><g id="text-0"><path d="M31.774 94.561v0c-0.43 1.265-1.059 2.383-1.888 3.355-0.825 0.981-1.803 1.667-2.934 2.06-1.139 0.397-2.383 0.366-3.73-0.092v0c-1.175-0.399-2.01-0.961-2.506-1.685-0.495-0.724-0.749-1.508-0.761-2.353-0.006-0.843 0.112-1.619 0.353-2.328v0c0.483 0.905 1.064 1.669 1.744 2.292 0.67 0.627 1.373 1.065 2.107 1.314v0c0.773 0.263 1.564 0.314 2.374 0.155 0.801-0.155 1.542-0.545 2.224-1.168 0.682-0.623 1.218-1.51 1.609-2.659v0c0.339-0.996 0.492-2.024 0.46-3.082-0.039-1.06-0.289-2.011-0.752-2.853-0.471-0.837-1.217-1.429-2.239-1.776v0c-0.926-0.315-1.808-0.329-2.646-0.044-0.836 0.279-1.651 0.729-2.447 1.349-0.789 0.623-1.574 1.3-2.357 2.031-0.779 0.74-1.58 1.412-2.405 2.015-0.821 0.612-1.679 1.051-2.574 1.316-0.895 0.266-1.851 0.226-2.867-0.119v0c-0.907-0.308-1.798-0.864-2.672-1.667-0.881-0.805-1.633-1.777-2.258-2.915-0.625-1.139-1.016-2.397-1.175-3.777-0.167-1.375-0.002-2.794 0.495-4.256v0c0.497-1.463 1.166-2.372 2.007-2.727 0.834-0.358 1.749-0.367 2.745-0.029v0c0.824 0.28 1.652 0.715 2.486 1.304 0.837 0.598 1.601 1.242 2.292 1.933 0.691 0.691 1.27 1.326 1.736 1.904v0c-0.258 0.404-0.56 0.672-0.903 0.805-0.336 0.128-0.714 0.121-1.136-0.023v0c-0.466-0.158-0.96-0.436-1.48-0.834-0.52-0.398-1.052-0.824-1.596-1.28-0.55-0.458-1.085-0.885-1.605-1.283-0.518-0.404-1.01-0.685-1.477-0.843v0c-0.415-0.141-0.782-0.13-1.101 0.032-0.315 0.171-0.596 0.621-0.843 1.348v0c-0.354 1.041-0.445 2.086-0.274 3.135 0.18 1.044 0.523 2.016 1.029 2.915 0.511 0.907 1.101 1.678 1.769 2.311 0.675 0.635 1.344 1.066 2.009 1.291v0c0.798 0.271 1.57 0.256 2.314-0.047 0.744-0.303 1.485-0.774 2.222-1.414 0.735-0.634 1.488-1.308 2.258-2.023 0.776-0.712 1.588-1.37 2.434-1.973 0.846-0.603 1.747-1.02 2.702-1.251 0.955-0.231 2.007-0.152 3.157 0.239v0c1.156 0.393 2.086 1.001 2.789 1.824 0.712 0.819 1.216 1.767 1.513 2.844 0.303 1.079 0.435 2.2 0.397 3.362-0.03 1.158-0.23 2.28-0.599 3.367z" fill="#89939e" data-fill-palette-color="primary"></path><path d="M69.138 37.75v0c-0.399 0.277-0.919 0.161-1.559-0.348-0.644-0.514-1.252-1.184-1.825-2.01v0c-0.623-0.898-1.213-2.081-1.771-3.549-0.56-1.459-1.073-3.057-1.539-4.795-0.47-1.743-0.855-3.5-1.155-5.27-0.296-1.765-0.491-3.419-0.584-4.963-0.088-1.548-0.062-2.854 0.077-3.92 0.145-1.069 0.439-1.758 0.883-2.065v0c0.383-0.265 0.821-0.249 1.314 0.049 0.488 0.302 0.886 0.674 1.194 1.118v0c0.373 0.538 0.703 1.269 0.992 2.193 0.288 0.925 0.519 1.968 0.691 3.129 0.178 1.157 0.277 2.353 0.296 3.587 0.023 1.24-0.055 2.431-0.232 3.572-0.174 1.147-0.467 2.179-0.881 3.098v0c0.19 0.771 0.419 1.516 0.686 2.233 0.269 0.708 0.56 1.364 0.873 1.969 0.322 0.606 0.656 1.159 1.001 1.658v0c0.092 0.133 0.184 0.254 0.276 0.362 0.092 0.109 0.186 0.216 0.284 0.321v0c-0.109-0.442-0.249-1.022-0.419-1.741-0.17-0.719-0.319-1.507-0.445-2.364-0.117-0.855-0.159-1.721-0.126-2.597 0.033-0.876 0.203-1.684 0.512-2.424 0.314-0.743 0.806-1.347 1.477-1.812v0c0.615-0.427 1.197-0.624 1.743-0.593 0.547 0.031 1.041 0.21 1.481 0.537 0.436 0.321 0.808 0.704 1.116 1.147v0c0.411 0.593 0.707 1.233 0.888 1.921 0.175 0.691 0.333 1.35 0.471 1.976 0.139 0.626 0.362 1.161 0.67 1.604v0c0.238 0.344 0.486 0.541 0.743 0.593 0.263 0.048 0.511-0.009 0.744-0.171v0c0.421-0.292 0.769-0.845 1.042-1.658 0.269-0.819 0.442-1.772 0.517-2.858 0.066-1.088 0.001-2.189-0.195-3.301v0l0.732 0.133c0.238 1.255 0.339 2.478 0.303 3.669-0.042 1.195-0.254 2.274-0.637 3.237-0.388 0.967-0.976 1.724-1.763 2.269v0c-0.71 0.492-1.376 0.679-2 0.561-0.627-0.123-1.135-0.465-1.523-1.024v0c-0.277-0.399-0.514-0.895-0.712-1.489-0.194-0.588-0.399-1.185-0.614-1.791-0.221-0.602-0.477-1.114-0.769-1.535v0c-0.319-0.46-0.646-0.718-0.98-0.774-0.34-0.052-0.654 0.022-0.942 0.222v0c-0.482 0.334-0.78 0.828-0.893 1.482-0.117 0.648-0.126 1.381-0.027 2.198 0.09 0.816 0.232 1.649 0.427 2.499 0.186 0.848 0.361 1.663 0.525 2.444 0.162 0.79 0.228 1.471 0.197 2.042-0.027 0.577-0.215 0.986-0.564 1.229zM64.455 25.58v0c0.201-0.788 0.322-1.66 0.365-2.617 0.048-0.961 0.039-1.927-0.028-2.899-0.065-0.981-0.171-1.905-0.32-2.77-0.143-0.869-0.302-1.625-0.477-2.268-0.178-0.648-0.359-1.122-0.542-1.422v0c-0.027-0.039-0.052-0.063-0.074-0.071-0.021-0.018-0.042-0.02-0.065-0.005v0c-0.116 0.081-0.197 0.498-0.241 1.251-0.04 0.759-0.029 1.728 0.033 2.907 0.063 1.18 0.204 2.461 0.424 3.844 0.22 1.383 0.528 2.733 0.925 4.05z" fill="#89939e" data-fill-palette-color="primary"></path><path d="M136.838 20.662v0c-0.58 0-1.11-0.176-1.588-0.528-0.479-0.351-0.718-0.891-0.717-1.619v0c0.001-0.749 0.21-1.42 0.629-2.014 0.419-0.6 0.969-1.143 1.65-1.627 0.675-0.492 1.417-0.95 2.228-1.375 0.81-0.418 1.613-0.825 2.409-1.222v0c0.277-0.722 0.581-1.608 0.913-2.661 0.325-1.052 0.616-2.094 0.873-3.126v0c-0.723 1.079-1.499 2.019-2.33 2.822-0.83 0.809-1.748 1.213-2.753 1.212v0c-0.425 0-0.863-0.088-1.316-0.265-0.459-0.176-0.839-0.48-1.142-0.911-0.303-0.432-0.455-0.999-0.454-1.701v0c0.001-0.634 0.112-1.383 0.336-2.246 0.223-0.87 0.504-1.713 0.841-2.529 0.338-0.816 0.689-1.5 1.055-2.053 0.365-0.546 0.685-0.819 0.962-0.819v0c0.121 0 0.31 0.047 0.566 0.142 0.256 0.095 0.506 0.223 0.749 0.385 0.249 0.162 0.398 0.338 0.444 0.527v0c-0.209 0.283-0.446 0.691-0.709 1.224-0.257 0.539-0.5 1.136-0.73 1.79-0.237 0.654-0.433 1.298-0.588 1.932-0.149 0.627-0.224 1.164-0.224 1.609v0c0 0.378 0.074 0.695 0.221 0.952 0.155 0.256 0.442 0.385 0.86 0.385v0c0.492 0 1.015-0.212 1.569-0.636 0.547-0.418 1.09-0.96 1.631-1.628 0.533-0.667 1.013-1.352 1.438-2.053v0c0.068-0.209 0.125-0.472 0.173-0.789 0.047-0.31 0.119-0.641 0.213-0.992v0c0.095-0.378 0.287-0.745 0.578-1.102 0.297-0.364 0.712-0.546 1.245-0.546v0c0.169 0 0.327 0.01 0.476 0.031 0.155 0.027 0.337 0.064 0.546 0.112v0c0 0.351-0.126 1.032-0.376 2.043-0.244 1.018-0.565 2.202-0.964 3.551-0.399 1.342-0.856 2.691-1.37 4.047v0c1.026-0.397 2.065-1.068 3.119-2.011 1.053-0.95 1.908-2.255 2.563-3.914v0l0.566 0.425c-0.352 1.167-0.886 2.175-1.601 3.025-0.716 0.856-1.516 1.581-2.4 2.173-0.891 0.6-1.782 1.098-2.673 1.496v0c-0.629 1.517-1.308 2.923-2.037 4.218-0.723 1.301-1.489 2.336-2.3 3.104-0.803 0.775-1.664 1.162-2.581 1.162zM136.566 19.427v0c0.418 0 1.033-0.465 1.843-1.395 0.804-0.937 1.628-2.41 2.472-4.42v0c-0.817 0.418-1.613 0.879-2.389 1.384-0.769 0.499-1.411 1.028-1.924 1.588-0.52 0.566-0.78 1.177-0.78 1.83v0c0 0.209 0.06 0.432 0.181 0.669 0.115 0.229 0.313 0.344 0.597 0.344z" fill="#89939e" data-fill-palette-color="primary"></path><path d="M204.199 29.281v0c-0.618-0.422-1.013-0.999-1.184-1.729-0.17-0.72 0.029-1.496 0.596-2.325v0c0.476-0.696 1.137-1.335 1.984-1.917 0.852-0.578 1.813-1.069 2.882-1.474 1.065-0.399 2.165-0.682 3.299-0.847 1.125-0.163 2.213-0.171 3.265-0.024 1.042 0.148 1.951 0.487 2.725 1.016v0c0.808 0.552 1.344 1.225 1.61 2.02 0.27 0.789 0.174 1.52-0.286 2.194v0c-0.358 0.524-0.773 0.779-1.246 0.766-0.473-0.013-0.923-0.222-1.349-0.627v0c0.136-0.128 0.284-0.272 0.443-0.433 0.153-0.165 0.289-0.334 0.407-0.506v0c0.278-0.407 0.437-0.825 0.477-1.255 0.031-0.428-0.204-0.813-0.705-1.156v0c-0.54-0.369-1.215-0.56-2.023-0.573-0.814-0.017-1.683 0.096-2.608 0.338-0.935 0.244-1.849 0.583-2.743 1.018-0.894 0.435-1.693 0.923-2.396 1.463-0.71 0.536-1.249 1.075-1.619 1.615v0c-0.449 0.657-0.431 1.151 0.054 1.483v0c0.446 0.304 1.079 0.423 1.901 0.355 0.818-0.062 1.728-0.233 2.729-0.513 1.001-0.28 1.985-0.592 2.955-0.934 0.969-0.343 1.815-0.647 2.536-0.914v0c0.146-0.047 0.248-0.051 0.303-0.014v0c0.085 0.091 0.211 0.242 0.377 0.454 0.166 0.211 0.295 0.435 0.388 0.669 0.093 0.235 0.074 0.447-0.055 0.637v0c-0.133 0.195-0.389 0.384-0.767 0.566-0.374 0.177-0.793 0.377-1.256 0.601-0.463 0.223-0.909 0.457-1.338 0.703-0.424 0.25-0.754 0.547-0.99 0.892v0c-0.171 0.251-0.268 0.548-0.291 0.892-0.019 0.338 0.136 0.62 0.465 0.845v0c0.485 0.331 1.389 0.43 2.713 0.297 1.315-0.131 2.955-0.702 4.92-1.712v0l0.148 0.788c-1.157 0.737-2.329 1.28-3.515 1.63-1.187 0.349-2.292 0.509-3.318 0.478-1.027-0.04-1.897-0.303-2.609-0.79v0c-0.774-0.529-1.181-1.154-1.219-1.875-0.044-0.725 0.105-1.379 0.446-1.962v0c0.042-0.061 0.091-0.122 0.148-0.181 0.051-0.063 0.096-0.122 0.134-0.178v0c-1.461 0.44-2.708 0.711-3.743 0.813-1.034 0.102-1.916-0.096-2.645-0.594z" fill="#89939e" data-fill-palette-color="primary"></path><path d="M256.979 96.94v0c-0.294-0.84-0.262-1.545 0.097-2.113 0.358-0.569 0.878-0.972 1.559-1.211v0c0.528-0.185 1.081-0.293 1.656-0.323 0.569-0.028 1.138-0.048 1.705-0.06 0.567-0.013 1.058-0.092 1.472-0.237v0c0.401-0.14 0.649-0.32 0.744-0.539 0.095-0.219 0.103-0.44 0.025-0.663v0c-0.185-0.528-0.795-0.983-1.828-1.365-1.04-0.379-2.486-0.813-4.337-1.301v0c-0.66-0.169-1.326-0.297-2-0.383-0.673-0.086-1.262-0.176-1.767-0.271v0c-0.062-0.178-0.112-0.432-0.149-0.763-0.046-0.334-0.054-0.635-0.026-0.902 0.032-0.276 0.134-0.444 0.306-0.504v0c0.204-0.071 0.631-0.096 1.282-0.073 0.651 0.022 1.412 0.042 2.282 0.058 0.877 0.015 1.731-0.006 2.563-0.061 0.838-0.057 1.521-0.179 2.049-0.363v0c0.331-0.116 0.569-0.264 0.714-0.443 0.153-0.175 0.184-0.393 0.092-0.654v0c-0.163-0.465-0.643-0.929-1.442-1.393-0.792-0.466-1.768-0.907-2.929-1.323-1.158-0.409-2.405-0.734-3.739-0.974-1.335-0.24-2.625-0.364-3.872-0.371v0c-0.085-0.242-0.14-0.544-0.167-0.906-0.027-0.362-0.016-0.688 0.033-0.977 0.049-0.289 0.128-0.452 0.236-0.49v0c0.064-0.022 0.438-0.057 1.122-0.103 0.68-0.038 1.517-0.088 2.51-0.149 0.993-0.062 2.004-0.144 3.033-0.248 1.031-0.097 1.932-0.208 2.703-0.335v0c0.229 0.02 0.498 0.187 0.807 0.5 0.31 0.313 0.519 0.626 0.629 0.938v0c0.107 0.306 0.105 0.585-0.007 0.839-0.114 0.247-0.323 0.424-0.629 0.531v0c-0.242 0.085-0.643 0.164-1.203 0.239-0.556 0.066-1.173 0.121-1.85 0.165v0c0.799 0.242 1.62 0.512 2.46 0.811 0.834 0.301 1.618 0.652 2.352 1.053 0.734 0.401 1.364 0.834 1.892 1.3 0.523 0.474 0.885 0.998 1.086 1.571v0c0.272 0.777 0.179 1.399-0.279 1.866-0.458 0.468-1.028 0.821-1.709 1.06v0c-0.376 0.132-0.771 0.227-1.186 0.286-0.409 0.057-0.811 0.102-1.208 0.134-0.405 0.027-0.806 0.036-1.203 0.024v0c0.861 0.192 1.685 0.443 2.472 0.754 0.785 0.304 1.468 0.691 2.047 1.159 0.572 0.471 0.978 1.048 1.216 1.729v0c0.285 0.815 0.241 1.463-0.134 1.945-0.383 0.477-0.871 0.82-1.463 1.027v0c-0.573 0.201-1.22 0.323-1.94 0.368-0.716 0.036-1.402 0.058-2.057 0.066-0.655 0.008-1.189 0.084-1.603 0.229v0c-0.248 0.087-0.45 0.225-0.605 0.416-0.155 0.19-0.17 0.463-0.046 0.82v0c0.207 0.592 0.685 1.068 1.433 1.428 0.739 0.356 1.595 0.625 2.566 0.806 0.965 0.184 1.872 0.313 2.72 0.388v0l-0.415 0.746c-1.048-0.033-2.135-0.167-3.26-0.403-1.122-0.243-2.123-0.633-3.004-1.167-0.878-0.529-1.48-1.258-1.806-2.188z" fill="#89939e" data-fill-palette-color="primary"></path><path d="M12.81 131.898c0-1.599 1.296-2.894 2.895-2.894 1.599 0 2.894 1.296 2.894 2.894 0 1.599-1.296 2.894-2.894 2.895-1.599 0-2.894-1.296-2.895-2.895z" fill="#89939e" data-fill-palette-color="primary"></path><path d="M267.56 131.898c0-1.599 1.296-2.894 2.894-2.894 1.599 0 2.894 1.296 2.895 2.894 0 1.599-1.296 2.894-2.895 2.895-1.599 0-2.894-1.296-2.894-2.895z" fill="#89939e" data-fill-palette-color="primary"></path></g><g id="text-1"><path d="M74.953 238.736c1.664 1.141 3.042 2.041 4.136 2.7 1.093 0.66 2.117 1.124 3.069 1.393v0c0.012 0.09-0.048 0.274-0.181 0.551-0.142 0.279-0.255 0.443-0.338 0.492v0c-0.54-0.19-0.935-0.265-1.184-0.223-0.253 0.047-0.566 0.229-0.939 0.546v0c-3.015 2.489-5.68 4.579-7.994 6.273-2.305 1.691-4.461 2.969-6.469 3.834v0c-4.098 1.73-7.919 1.38-11.463-1.051v0c-1.141-0.782-1.936-1.548-2.387-2.299-0.454-0.745-0.622-1.412-0.504-2.002v0l0.116-0.509c0.595 1.316 1.61 2.466 3.045 3.45v0c2.598 1.782 5.541 2.249 8.829 1.403 3.284-0.84 7.085-2.871 11.404-6.093v0c-1.389 0.487-2.862 0.655-4.419 0.503-1.562-0.155-3.122-0.767-4.68-1.835v0c-2.225-1.526-3.477-3.37-3.753-5.53-0.271-2.157 0.387-4.393 1.974-6.708v0c1.381-2.014 3.139-3.618 5.275-4.812 2.13-1.198 4.427-1.774 6.89-1.729 2.462 0.036 4.822 0.828 7.082 2.377v0c1.369 0.938 2.452 1.971 3.249 3.099 0.803 1.131 1.339 2.252 1.609 3.361v0c-0.557 0.395-1.074 0.826-1.549 1.294-0.48 0.473-1.06 1.134-1.741 1.984v0c-0.106-0.072-0.249-0.15-0.429-0.233-0.171-0.085-0.298-0.126-0.381-0.126v0c0.586-0.997 0.952-1.662 1.099-1.995v0c0.537-1.153 0.524-2.267-0.041-3.341-0.568-1.068-1.458-2.018-2.671-2.85v0c-1.842-1.263-3.821-1.9-5.94-1.913-2.122-0.007-4.139 0.532-6.052 1.616-1.919 1.081-3.516 2.55-4.79 4.409v0c-1.37 1.997-1.96 3.866-1.771 5.607 0.189 1.741 1.168 3.218 2.936 4.431v0c1.508 1.034 3.088 1.569 4.74 1.606 1.652 0.037 3.136-0.267 4.452-0.91 1.316-0.643 2.263-1.385 2.839-2.226v0c0.191-0.278 0.273-0.512 0.247-0.701-0.029-0.184-0.203-0.384-0.52-0.602v0c-0.295-0.202-1.146-0.708-2.554-1.518v0c-0.256-0.151-0.735-0.431-1.437-0.838v0c0.358-0.368 0.757-0.663 1.196-0.885z" fill="#89939e" data-fill-palette-color="primary"></path><path d="M95.408 253.46c0.321 0.22 0.404 0.494 0.248 0.823v0c-0.364 0.768-1.283 1.429-2.757 1.984-1.476 0.561-3.063 0.891-4.76 0.99-1.7 0.104-3.001-0.058-3.902-0.486v0c-0.865-0.411-1.508-0.992-1.928-1.744-0.42-0.752-0.664-1.488-0.733-2.208-0.072-0.714-0.044-1.205 0.083-1.473v0c0.825-0.952 1.881-2.311 3.167-4.075v0l1.088-1.466c0.261-0.346 0.727-0.611 1.396-0.793 0.678-0.186 1.382-0.277 2.112-0.274 0.73 0.003 1.275 0.09 1.635 0.26v0c0.293 0.139 0.603 0.398 0.93 0.778 0.322 0.377 0.55 0.832 0.685 1.367 0.135 0.534 0.06 1.1-0.224 1.697v0c-0.327 0.689-0.865 1.232-1.614 1.631-0.755 0.396-1.675 0.571-2.759 0.527-1.084-0.044-2.26-0.367-3.528-0.969v0l-1.318 1.738c-0.084 0.177-0.121 0.514-0.11 1.012 0.01 0.498 0.163 1.018 0.457 1.561 0.298 0.537 0.791 0.969 1.48 1.296v0c0.926 0.44 2.042 0.599 3.345 0.479 1.304-0.12 2.591-0.432 3.86-0.934 1.278-0.506 2.327-1.08 3.147-1.721zM90.264 246.078c-0.232-0.11-0.572-0.156-1.021-0.137-0.458 0.021-0.905 0.105-1.339 0.249-0.435 0.145-0.739 0.329-0.912 0.553v0c-0.606 0.773-1.195 1.565-1.767 2.376v0c1.504 0.639 2.755 0.875 3.754 0.706 1.001-0.174 1.661-0.597 1.979-1.267v0c0.229-0.481 0.255-0.977 0.078-1.486-0.185-0.506-0.443-0.837-0.772-0.994z" fill="#89939e" data-fill-palette-color="primary"></path><path d="M105.227 259.236c0.051 0.176 0.041 0.363-0.031 0.559v0c-0.06 0.165-0.14 0.297-0.241 0.397-0.105 0.091-0.26 0.203-0.467 0.337v0c-0.745 0.433-1.692 0.786-2.838 1.059-1.153 0.271-2.309 0.411-3.468 0.421-1.153 0.012-2.11-0.119-2.87-0.395v0c-0.862-0.313-1.482-0.839-1.861-1.579-0.371-0.737-0.365-1.636 0.02-2.695v0c0.485-1.338 1.877-3.682 4.176-7.032v0l-3.222-1.029c-0.031-0.033-0.072-0.087-0.124-0.163-0.058-0.078-0.089-0.14-0.095-0.185v0c0.1-0.078 0.284-0.238 0.551-0.479 0.269-0.247 0.486-0.409 0.65-0.485v0l3.077 1.159c1.545-2.202 3.213-4.436 5.003-6.7v0c0.465-0.154 1.036-0.295 1.714-0.422 0.678-0.127 1.077-0.169 1.197-0.126v0c0.154 0.149 0.225 0.3 0.212 0.454v0c-0.412 0.008-0.758 0.091-1.037 0.248-0.288 0.161-0.625 0.466-1.01 0.915v0c-1.119 1.266-2.657 3.32-4.614 6.163v0l7.638 2.802-0.144 0.486c-0.058 0.159-0.129 0.258-0.216 0.299-0.078 0.036-0.231 0.024-0.46-0.038v0c-0.288-0.076-2.824-0.881-7.606-2.414v0c-2.275 3.423-3.641 5.766-4.099 7.027v0c-0.253 0.698-0.271 1.272-0.055 1.724 0.223 0.454 0.683 0.807 1.381 1.061v0c2.036 0.738 4.982 0.282 8.839-1.369z" fill="#89939e" data-fill-palette-color="primary"></path><path d="M114.387 267.113c-0.726-0.153-1.325-0.535-1.796-1.144-0.465-0.608-0.596-1.391-0.394-2.348v0c0.521-0.931 1.529-3.032 3.025-6.301v0c0.726-1.612 1.167-2.574 1.323-2.886v0c0.367-0.398 0.788-0.547 1.263-0.447v0c0.317 0.067 0.454 0.203 0.41 0.407v0c-0.255 0.491-0.635 1.276-1.138 2.356-0.496 1.074-0.884 1.92-1.166 2.536v0c-1.106 2.463-1.841 4.035-2.205 4.716v0c-0.102 0.482-0.038 0.881 0.192 1.198 0.222 0.323 0.563 0.533 1.025 0.63v0c1.036 0.219 2.157 0.069 3.363-0.448 1.212-0.516 2.321-1.179 3.325-1.988 1.005-0.808 1.78-1.527 2.327-2.156v0c0.116 0.073 0.184 0.159 0.204 0.26 0.027 0.102 0.016 0.269-0.033 0.5v0c-0.065 0.31-0.239 0.608-0.52 0.893v0c-1.495 1.532-3.054 2.693-4.674 3.482-1.621 0.789-3.131 1.035-4.531 0.74zM119.443 250.257c-0.29-0.061-0.497-0.208-0.621-0.441-0.123-0.233-0.152-0.504-0.086-0.815v0c0.088-0.416 0.303-0.767 0.646-1.053 0.343-0.286 0.722-0.385 1.138-0.297v0c0.33 0.07 0.553 0.223 0.668 0.461 0.114 0.245 0.14 0.512 0.079 0.803v0c-0.088 0.416-0.31 0.765-0.666 1.049-0.356 0.283-0.742 0.381-1.158 0.293z" fill="#89939e" data-fill-palette-color="primary"></path><path d="M137.951 262.188c0.215 0.024 0.359 0.131 0.433 0.323 0.074 0.191 0.098 0.401 0.073 0.629v0c-0.084 0.764-0.593 1.682-1.525 2.754-0.933 1.071-2.064 1.975-3.394 2.71-1.329 0.729-2.597 1.027-3.804 0.894v0c-0.758-0.084-1.323-0.339-1.697-0.767-0.367-0.427-0.507-1.03-0.421-1.808v0c0.119-1.08 0.576-2.512 1.369-4.298 0.793-1.779 1.502-3.255 2.127-4.428v0c-0.073-0.137-0.153-0.21-0.24-0.22v0c-0.08-0.009-0.178 0.011-0.292 0.06v0c-0.408 0.193-1.089 0.643-2.042 1.352-0.953 0.703-1.891 1.454-2.814 2.256-0.922 0.794-1.561 1.45-1.917 1.967v0c-0.436 0.875-0.711 1.428-0.825 1.66-0.114 0.232-0.241 0.618-0.382 1.159v0l-0.449 1.396c-0.027 0.058-0.056 0.136-0.087 0.235-0.03 0.092-0.064 0.146-0.099 0.162-0.029 0.017-0.077 0.022-0.145 0.015v0c-0.188-0.021-0.434-0.068-0.737-0.143-0.303-0.081-0.45-0.162-0.442-0.242v0c0.028-0.255 0.147-0.659 0.358-1.212 0.21-0.554 0.415-1.057 0.614-1.511 0.205-0.446 0.362-0.791 0.471-1.037v0l0.389-0.853c0.843-2.045 1.428-3.535 1.755-4.469 0.328-0.941 0.664-1.99 1.009-3.147v0c0.044-0.212 0.203-0.303 0.478-0.273v0c0.188 0.021 0.397 0.091 0.628 0.212 0.238 0.121 0.367 0.271 0.388 0.45v0c-0.129 0.366-0.354 0.993-0.675 1.88-0.321 0.881-0.7 1.854-1.137 2.919v0c1.379-1.239 2.79-2.346 4.235-3.32 1.444-0.974 2.388-1.437 2.83-1.389v0c0.208 0.023 0.447 0.158 0.719 0.405 0.272 0.24 0.431 0.462 0.477 0.664v0c-0.878 1.743-1.74 3.653-2.587 5.731-0.853 2.078-1.317 3.452-1.391 4.123v0c-0.082 0.744 0.299 1.163 1.145 1.256v0c1.247 0.137 2.588-0.421 4.022-1.674 1.434-1.254 2.628-2.727 3.582-4.421z" fill="#89939e" data-fill-palette-color="primary"></path><path d="M157.703 263.96c0.116 0.142 0.179 0.318 0.191 0.527v0c0.009 0.175-0.013 0.328-0.067 0.46-0.061 0.125-0.16 0.289-0.297 0.492v0c-0.517 0.69-1.25 1.384-2.199 2.084-0.956 0.7-1.965 1.281-3.028 1.743-1.056 0.462-1.988 0.715-2.796 0.759v0c-0.916 0.049-1.693-0.193-2.329-0.727-0.63-0.534-0.975-1.363-1.036-2.487v0c-0.076-1.421 0.289-4.123 1.095-8.105v0l-3.368 0.312c-0.042-0.018-0.101-0.052-0.178-0.102-0.084-0.05-0.137-0.094-0.159-0.133v0c0.062-0.111 0.168-0.33 0.32-0.656 0.151-0.332 0.287-0.566 0.408-0.7v0l3.286-0.136c0.561-2.631 1.223-5.339 1.986-8.123v0c0.368-0.324 0.839-0.677 1.412-1.059 0.574-0.382 0.925-0.577 1.053-0.583v0c0.2 0.077 0.324 0.189 0.373 0.335v0c-0.376 0.169-0.662 0.38-0.858 0.633-0.202 0.261-0.393 0.673-0.572 1.237v0c-0.535 1.603-1.148 4.095-1.838 7.476v0l8.126-0.406 0.057 0.504c0.009 0.168-0.018 0.288-0.082 0.359-0.057 0.064-0.203 0.112-0.438 0.145v0c-0.295 0.043-2.943 0.293-7.945 0.751v0c-0.756 4.04-1.098 6.73-1.026 8.071v0c0.04 0.741 0.248 1.277 0.624 1.608 0.383 0.331 0.944 0.476 1.685 0.436v0c2.162-0.116 4.696-1.688 7.6-4.715z" fill="#89939e" data-fill-palette-color="primary"></path><path d="M168.376 231.919c1.8-0.32 3.313-0.074 4.54 0.735 1.22 0.811 1.989 2.117 2.309 3.917v0l-0.154 0.407c-0.711-1.34-1.618-2.262-2.721-2.764-1.105-0.51-2.348-0.642-3.729-0.396v0c-2.909 0.517-5.089 2.593-6.541 6.228-1.45 3.642-2.371 8.681-2.763 15.115v0l-0.187 3.692-0.084 1.896c0.648-1.369 1.528-2.738 2.641-4.108 1.119-1.377 2.014-2.125 2.685-2.244v0c0.166-0.029 0.44 0.083 0.82 0.337 0.382 0.261 0.586 0.465 0.612 0.611v0c-0.194 1.22-0.367 2.987-0.518 5.303-0.151 2.315-0.172 3.775-0.065 4.379v0c0.105 0.591 0.273 1 0.506 1.226 0.239 0.225 0.65 0.285 1.234 0.181v0c1.043-0.185 1.986-0.76 2.829-1.725 0.848-0.973 1.541-2.031 2.077-3.174 0.544-1.145 0.936-2.136 1.178-2.974v0c0.153 0.014 0.279 0.067 0.378 0.159 0.104 0.084 0.185 0.231 0.242 0.44v0l0.016 0.09c0.045 0.252 0.014 0.563-0.091 0.93v0c-0.652 1.925-1.624 3.625-2.918 5.102-1.294 1.47-2.652 2.331-4.073 2.584v0c-0.731 0.13-1.36 0.002-1.887-0.385-0.52-0.38-0.854-0.989-1.003-1.826v0c-0.145-0.817-0.19-1.844-0.136-3.079 0.047-1.242 0.146-2.708 0.298-4.4v0c-0.001 0.11 0.039-0.339 0.121-1.348v0c-0.035-0.083-0.101-0.146-0.199-0.191-0.097-0.044-0.175-0.061-0.235-0.05v0c-0.206 0.037-0.636 0.469-1.29 1.298-0.654 0.829-1.292 1.792-1.913 2.888-0.626 1.105-1.063 2.114-1.312 3.029v0c-0.064 0.875-0.087 1.958-0.071 3.249v0c0.006 0.15 0.014 0.309 0.024 0.479 0.003 0.171-0.001 0.343-0.011 0.516v0c0.007 0.389-0.003 0.658-0.032 0.807-0.03 0.142-0.107 0.225-0.233 0.247v0c-0.252 0.045-0.546 0.032-0.881-0.039-0.335-0.071-0.518-0.199-0.551-0.385v0c-0.048-0.272-0.056-0.682-0.023-1.229v0l0.672-12.072c0.368-6.8 1.405-12.267 3.111-16.4 1.704-4.139 4.147-6.492 7.328-7.056z" fill="#89939e" data-fill-palette-color="primary"></path><path d="M184.826 255.632c0.387-0.04 0.628 0.116 0.721 0.468v0c0.219 0.821-0.054 1.92-0.819 3.296-0.763 1.383-1.76 2.66-2.99 3.833-1.229 1.179-2.326 1.897-3.29 2.154v0c-0.926 0.246-1.792 0.219-2.599-0.084-0.806-0.302-1.469-0.705-1.987-1.209-0.516-0.498-0.813-0.89-0.889-1.177v0c0.014-1.26-0.06-2.979-0.221-5.156v0l-0.118-1.822c-0.025-0.433 0.159-0.936 0.551-1.508 0.397-0.58 0.875-1.106 1.434-1.575 0.559-0.47 1.031-0.756 1.416-0.859v0c0.313-0.083 0.717-0.086 1.212-0.008 0.489 0.079 0.957 0.279 1.406 0.599 0.448 0.32 0.758 0.8 0.927 1.439v0c0.196 0.737 0.137 1.499-0.176 2.288-0.32 0.79-0.908 1.519-1.763 2.187-0.855 0.668-1.961 1.182-3.317 1.543v0l0.119 2.177c0.05 0.189 0.24 0.47 0.57 0.843 0.33 0.373 0.783 0.671 1.358 0.895 0.574 0.217 1.23 0.228 1.967 0.032v0c0.991-0.264 1.945-0.863 2.862-1.799 0.917-0.935 1.697-2.005 2.339-3.209 0.648-1.213 1.076-2.329 1.287-3.348zM176.129 253.329c-0.248 0.066-0.537 0.251-0.868 0.556-0.336 0.313-0.622 0.665-0.86 1.056-0.238 0.391-0.351 0.729-0.338 1.012v0c0.038 0.981 0.101 1.966 0.189 2.955v0c1.56-0.485 2.667-1.115 3.32-1.889 0.651-0.781 0.881-1.529 0.69-2.247v0c-0.137-0.515-0.438-0.91-0.902-1.184-0.469-0.266-0.879-0.352-1.231-0.259z" fill="#89939e" data-fill-palette-color="primary"></path><path d="M197.259 224.583c0.23 0.435 0.207 0.867-0.07 1.296v0c-0.543-0.117-1.124-0.119-1.742-0.005-0.616 0.105-1.196 0.3-1.739 0.587v0c-1.091 0.577-1.756 1.463-1.994 2.657-0.229 1.197-0.113 3.005 0.35 5.424 0.466 2.425 1.374 6.141 2.726 11.15v0l5.673-3.103c0.07 0.032 0.135 0.104 0.195 0.217v0c0.11 0.209 0.099 0.455-0.033 0.739-0.123 0.286-0.289 0.485-0.498 0.595v0l-0.617 0.327c-2.068 1.14-3.534 1.961-4.398 2.463v0c1.102 3.988 2.046 7.519 2.831 10.591v0c0.042 0.268 0.095 0.518 0.157 0.752 0.06 0.228 0.117 0.438 0.173 0.63v0c0.932 3.811 1.578 7.01 1.939 9.597 0.355 2.59 0.33 4.816-0.074 6.679-0.413 1.859-1.353 3.177-2.82 3.952v0c-1.187 0.628-2.341 0.754-3.463 0.378-1.125-0.382-2.081-0.948-2.868-1.7-0.781-0.755-1.294-1.365-1.54-1.83v0c-0.17-0.322-0.263-0.635-0.28-0.939-0.016-0.304-0.008-0.694 0.023-1.169v0c0.069-0.418 0.101-0.748 0.096-0.989v0c1.553 2.071 2.899 3.469 4.038 4.195 1.142 0.731 2.325 0.774 3.547 0.127v0c0.996-0.527 1.671-1.364 2.025-2.513 0.354-1.149 0.413-2.748 0.176-4.798-0.243-2.046-0.792-4.744-1.647-8.092v0c-0.817-3.132-1.765-6.721-2.844-10.767v0l-0.876-3.28c-1.371 0.771-2.339 1.378-2.905 1.823-0.572 0.448-0.936 0.899-1.092 1.355-0.159 0.45-0.185 1.071-0.08 1.863v0l-0.428 0.077c-0.359-1.184-0.525-2.046-0.498-2.587 0.027-0.541 0.251-0.983 0.671-1.328v0c0.595-0.505 1.92-1.34 3.976-2.503v0c-1.174-4.355-1.984-7.605-2.431-9.749-0.447-2.144-0.644-3.96-0.59-5.446 0.057-1.48 0.433-2.862 1.127-4.144v0c0.739-1.33 1.645-2.278 2.719-2.846v0c0.692-0.366 1.317-0.517 1.877-0.455 0.569 0.065 0.972 0.322 1.208 0.769z" fill="#89939e" data-fill-palette-color="primary"></path><path d="M217.288 239.422c0.315-0.09 0.555-0.013 0.723 0.233v0c0.259 0.442 0.341 1.376 0.244 2.8-0.102 1.428-0.433 2.845-0.993 4.252-0.551 1.409-1.341 2.415-2.371 3.019v0c-0.693 0.406-1.358 0.518-1.996 0.336-0.638-0.182-1.161-0.622-1.571-1.32v0c-0.136-0.233-0.231-0.435-0.285-0.607v0c-0.013 0.899-0.177 1.827-0.491 2.786-0.315 0.958-0.783 1.62-1.406 1.984v0c-0.53 0.31-1.173 0.406-1.931 0.287-0.767-0.122-1.334-0.368-1.7-0.741v0c-0.502-0.816-0.939-1.831-1.313-3.042-0.379-1.208-1.023-3.603-1.931-7.183v0c-0.094-0.414-0.068-0.664 0.077-0.749v0c0.146-0.085 0.38-0.125 0.704-0.119 0.327 0.012 0.534 0.09 0.619 0.236v0c0.041 0.07 0.076 0.182 0.104 0.337 0.028 0.155 0.056 0.276 0.083 0.362v0c1.146 4.653 2.067 7.635 2.765 8.947v0c0.233 0.184 0.574 0.313 1.023 0.386 0.446 0.067 0.777 0.038 0.992-0.089v0c0.239-0.14 0.489-0.474 0.75-1.002 0.252-0.531 0.426-1.262 0.521-2.193 0.096-0.932 0.04-2.041-0.165-3.327v0c-0.268-1.539-0.823-3.701-1.663-6.484v0c-0.079-0.228-0.036-0.389 0.126-0.485v0c0.146-0.085 0.389-0.123 0.732-0.112 0.337 0.014 0.563 0.12 0.679 0.318v0c0.099 0.169 0.212 0.548 0.338 1.139 0.127 0.59 0.207 0.961 0.242 1.113v0c0.317 1.542 0.628 2.881 0.932 4.015 0.308 1.141 0.687 2.095 1.138 2.864v0c0.699 1.193 1.462 1.548 2.288 1.064v0c0.53-0.31 1.013-0.894 1.449-1.751 0.436-0.857 0.768-1.919 0.995-3.187 0.233-1.27 0.331-2.633 0.292-4.087z" fill="#89939e" data-fill-palette-color="primary"></path><path d="M228.347 230.293c0.172-0.13 0.351-0.151 0.536-0.063 0.185 0.088 0.347 0.224 0.486 0.407v0c0.464 0.613 0.725 1.63 0.783 3.048 0.058 1.419-0.143 2.853-0.604 4.301-0.465 1.443-1.182 2.531-2.15 3.263v0c-0.608 0.46-1.195 0.663-1.76 0.609-0.56-0.058-1.076-0.4-1.549-1.024v0c-0.655-0.866-1.308-2.221-1.957-4.064-0.646-1.838-1.144-3.397-1.496-4.679v0c-0.147-0.049-0.256-0.048-0.326 0.005v0c-0.065 0.049-0.122 0.13-0.171 0.244v0c-0.164 0.42-0.349 1.216-0.555 2.386-0.21 1.165-0.375 2.356-0.496 3.572-0.125 1.211-0.138 2.126-0.041 2.746v0c0.284 0.935 0.465 1.526 0.541 1.773 0.077 0.247 0.249 0.615 0.519 1.105v0l0.633 1.323c0.02 0.061 0.053 0.137 0.098 0.23 0.041 0.088 0.054 0.15 0.039 0.186-0.009 0.032-0.041 0.069-0.095 0.11v0c-0.151 0.114-0.362 0.248-0.634 0.403-0.276 0.15-0.438 0.192-0.487 0.128v0c-0.155-0.204-0.346-0.58-0.573-1.127-0.228-0.547-0.425-1.053-0.591-1.52-0.157-0.465-0.281-0.824-0.371-1.077v0l-0.303-0.887c-0.792-2.065-1.391-3.55-1.795-4.453-0.408-0.909-0.885-1.902-1.429-2.98v0c-0.114-0.184-0.061-0.36 0.16-0.527v0c0.151-0.114 0.351-0.206 0.602-0.277 0.256-0.075 0.453-0.055 0.591 0.06v0c0.158 0.354 0.425 0.964 0.801 1.83 0.372 0.861 0.765 1.828 1.18 2.902v0c0.15-1.848 0.416-3.622 0.796-5.322 0.38-1.7 0.748-2.685 1.103-2.953v0c0.167-0.126 0.434-0.193 0.8-0.2 0.363-0.012 0.63 0.039 0.803 0.155v0c0.559 1.869 1.245 3.85 2.058 5.942 0.807 2.096 1.414 3.413 1.821 3.951v0c0.452 0.597 1.017 0.639 1.694 0.127v0c1.001-0.757 1.592-2.084 1.773-3.98 0.181-1.896 0.037-3.787-0.434-5.673z" fill="#89939e" data-fill-palette-color="primary"></path></g></svg></g></svg></g></svg></g><g></g></svg></g><defs></defs></svg><rect width="279.72" height="279.72" fill="none" stroke="none" visibility="hidden"></rect></g></svg></g></svg>